<svg width="500" height="500" viewBox="0 0 500 500" fill="none" xmlns="http://www.w3.org/2000/svg">
<path fill-rule="evenodd" clip-rule="evenodd" d="M114.458 0C127.766 0 138.554 10.5772 138.554 23.6248V437.059C138.554 450.106 127.766 460.683 114.458 460.683C101.15 460.683 90.3615 450.106 90.3615 437.059V23.6248C90.3615 10.5772 101.15 0 114.458 0Z" fill="#425CA9"/>
<path fill-rule="evenodd" clip-rule="evenodd" d="M221.858 361.291C212.448 352.065 197.191 352.065 187.781 361.291L114.458 433.179L41.1351 361.291C31.7249 352.065 16.4679 352.065 7.05768 361.291C-2.35256 370.517 -2.35256 385.476 7.05768 394.702L114.458 500L221.858 394.702C231.268 385.476 231.268 370.517 221.858 361.291Z" fill="#425CA9"/>
<path fill-rule="evenodd" clip-rule="evenodd" d="M210.843 259.873C210.843 246.825 221.632 236.248 234.94 236.248H355.422C368.73 236.248 379.518 246.825 379.518 259.873C379.518 272.92 368.73 283.497 355.422 283.497H234.94C221.632 283.497 210.843 272.92 210.843 259.873Z" fill="#425CA9"/>
<path fill-rule="evenodd" clip-rule="evenodd" d="M210.843 141.749C210.843 128.701 221.632 118.124 234.94 118.124H415.663C428.971 118.124 439.759 128.701 439.759 141.749C439.759 154.796 428.971 165.374 415.663 165.374H234.94C221.632 165.374 210.843 154.796 210.843 141.749Z" fill="#425CA9"/>
<path fill-rule="evenodd" clip-rule="evenodd" d="M210.843 23.6248C210.843 10.5772 221.632 0 234.94 0H475.904C489.212 0 500 10.5772 500 23.6248C500 36.6724 489.212 47.2496 475.904 47.2496H234.94C221.632 47.2496 210.843 36.6724 210.843 23.6248Z" fill="#425CA9"/>
</svg>
